<svg width="1692" height="864" viewBox="0 0 1692 864" fill="none" xmlns="http://www.w3.org/2000/svg">
<g filter="url(#filter0_dddd_1940_703)">
<path d="M68 33C68 21.9543 76.9543 13 88 13H1604C1615.05 13 1624 21.9543 1624 33V605C1624 616.046 1615.05 625 1604 625H88C76.9543 625 68 616.046 68 605V33Z" fill="#FDFDFD"/>
<path d="M88 13.5H1604C1614.77 13.5 1623.5 22.2304 1623.5 33V605C1623.5 615.77 1614.77 624.5 1604 624.5H88C77.2304 624.5 68.5 615.77 68.5 605V33C68.5 22.2304 77.2304 13.5 88 13.5Z" stroke="#EEEEEE"/>
<g opacity="0.5">
<g opacity="0.5">
<path d="M1270.32 299.552C1280.28 301.998 1289.59 311.599 1289.74 324.521C1289.89 336.96 1281 347.347 1270.35 349.973C1270.35 349.732 1270.32 349.52 1270.32 349.279C1270.32 343.603 1270.32 337.957 1270.32 332.281C1270.32 331.314 1269.99 330.59 1269.12 330.137C1267.62 329.382 1265.87 330.378 1265.84 332.069C1265.81 334.303 1265.84 336.538 1265.84 338.772C1265.84 342.606 1265.84 346.471 1265.84 350.305C1265.84 350.698 1265.69 350.819 1265.33 350.819C1263.62 350.819 1261.91 350.819 1260.11 350.819C1260.11 350.487 1260.11 350.124 1260.11 349.792C1260.11 343.935 1260.11 338.078 1260.11 332.19C1260.11 331.043 1259.48 330.197 1258.46 329.956C1257.44 329.714 1256.36 330.137 1255.91 331.073C1255.76 331.405 1255.67 331.797 1255.67 332.16C1255.67 336.628 1255.67 341.067 1255.67 345.535C1255.67 347.286 1255.67 349.037 1255.67 350.849L1249.99 350.849C1249.99 350.638 1249.99 350.456 1249.99 350.245C1249.99 347.045 1249.99 343.814 1249.99 340.614C1249.99 337.836 1249.99 335.058 1249.99 332.281C1249.99 330.862 1249.06 329.895 1247.71 329.895C1246.39 329.895 1245.49 330.862 1245.49 332.281C1245.49 338.198 1245.49 344.116 1245.49 350.034C1245.49 350.275 1245.49 350.517 1245.49 350.788L1239.76 350.788C1239.76 349.581 1239.76 348.343 1239.76 347.135C1239.76 342.153 1239.76 337.142 1239.76 332.16C1239.76 331.103 1239.19 330.288 1238.26 329.986C1237.3 329.654 1236.22 329.986 1235.71 330.831C1235.44 331.254 1235.32 331.828 1235.32 332.341C1235.32 338.259 1235.32 344.176 1235.32 350.124C1235.32 350.336 1235.32 350.547 1235.32 350.788L1229.58 350.788C1229.58 350.487 1229.58 350.275 1229.58 350.034C1229.58 344.056 1229.58 338.108 1229.58 332.13C1229.58 331.013 1228.83 330.077 1227.84 329.895C1226.67 329.684 1225.56 330.258 1225.26 331.345C1225.11 331.888 1225.14 332.522 1225.11 333.096C1225.11 338.591 1225.11 344.086 1225.11 349.551C1225.11 349.671 1225.11 349.792 1225.11 349.913C1215.17 347.588 1205.45 337.443 1205.75 324.129C1206.05 311.237 1215.47 301.817 1225.14 299.492L1225.14 300.277C1225.14 305.953 1225.14 311.659 1225.14 317.335C1225.14 318.271 1225.56 318.996 1226.43 319.358C1227.33 319.751 1228.2 319.66 1228.95 318.966C1229.46 318.513 1229.64 317.879 1229.64 317.184C1229.64 312.323 1229.64 307.432 1229.64 302.571C1229.64 301.303 1229.64 300.035 1229.64 298.677L1235.38 298.677C1235.38 299.794 1235.38 300.941 1235.38 302.088C1235.38 307.13 1235.38 312.142 1235.38 317.184C1235.38 318.785 1236.43 319.69 1237.96 319.509C1239.1 319.358 1239.82 318.513 1239.82 317.245C1239.82 315.192 1239.82 313.169 1239.82 311.116C1239.82 307.161 1239.82 303.236 1239.82 299.28C1239.82 299.069 1239.82 298.858 1239.82 298.586L1245.55 298.586C1245.55 298.827 1245.55 299.069 1245.55 299.341C1245.55 305.258 1245.55 311.176 1245.55 317.124C1245.55 318.392 1246.48 319.57 1247.8 319.539C1249.18 319.509 1250.05 318.603 1250.05 317.124C1250.05 313.471 1250.05 309.848 1250.08 306.194C1250.08 303.688 1250.08 301.182 1250.08 298.616L1255.76 298.616C1255.76 298.827 1255.76 299.039 1255.76 299.28C1255.76 305.258 1255.76 311.206 1255.76 317.184C1255.76 318.996 1257.35 320.083 1258.97 319.358C1259.87 318.966 1260.26 318.181 1260.26 317.215C1260.26 311.357 1260.26 305.5 1260.26 299.612C1260.26 299.311 1260.26 298.978 1260.26 298.586C1260.89 298.586 1261.46 298.586 1262.06 298.586C1263.17 298.586 1264.25 298.586 1265.36 298.586C1265.84 298.586 1266.02 298.767 1266.02 299.28C1266.02 305.198 1266.02 311.116 1266.02 317.033C1266.02 318.06 1266.32 318.875 1267.31 319.298C1268.82 319.962 1270.53 318.996 1270.53 317.184C1270.5 312.656 1270.53 308.157 1270.53 303.628C1270.53 302.239 1270.53 300.85 1270.53 299.431L1270.32 299.552Z" fill="#293C53"/>
</g>
<g opacity="0.5">
<path d="M466.835 299.552C476.801 301.998 486.106 311.599 486.256 324.521C486.406 336.96 477.521 347.347 466.865 349.973C466.865 349.732 466.835 349.52 466.835 349.279C466.835 343.603 466.835 337.957 466.835 332.281C466.835 331.314 466.505 330.59 465.634 330.137C464.133 329.382 462.392 330.378 462.362 332.069C462.332 334.303 462.362 336.538 462.362 338.772C462.362 342.606 462.362 346.471 462.362 350.305C462.362 350.698 462.212 350.819 461.852 350.819C460.141 350.819 458.43 350.819 456.629 350.819C456.629 350.487 456.629 350.124 456.629 349.792C456.629 343.935 456.629 338.078 456.629 332.19C456.629 331.043 455.998 330.197 454.978 329.956C453.957 329.714 452.876 330.137 452.426 331.073C452.276 331.405 452.186 331.797 452.186 332.16C452.186 336.628 452.186 341.067 452.186 345.535C452.186 347.286 452.186 349.037 452.186 350.849L446.513 350.849C446.513 350.638 446.513 350.456 446.513 350.245C446.513 347.045 446.513 343.814 446.513 340.614C446.513 337.836 446.513 335.058 446.513 332.281C446.513 330.862 445.582 329.895 444.231 329.895C442.911 329.895 442.01 330.862 442.01 332.281C442.01 338.198 442.01 344.116 442.01 350.034C442.01 350.275 442.01 350.517 442.01 350.788L436.277 350.788C436.277 349.581 436.277 348.343 436.277 347.135C436.277 342.153 436.277 337.142 436.277 332.16C436.277 331.103 435.706 330.288 434.776 329.986C433.815 329.654 432.735 329.986 432.224 330.831C431.954 331.254 431.834 331.828 431.834 332.341C431.834 338.259 431.834 344.176 431.834 350.124C431.834 350.336 431.834 350.547 431.834 350.788L426.101 350.788C426.101 350.487 426.101 350.275 426.101 350.034C426.101 344.056 426.101 338.108 426.101 332.13C426.101 331.013 425.35 330.077 424.36 329.895C423.189 329.684 422.078 330.258 421.778 331.345C421.628 331.888 421.658 332.522 421.628 333.096C421.628 338.591 421.628 344.086 421.628 349.551C421.628 349.671 421.628 349.792 421.628 349.913C411.692 347.588 401.966 337.443 402.267 324.129C402.567 311.237 411.992 301.817 421.658 299.492L421.658 300.277C421.658 305.953 421.658 311.659 421.658 317.335C421.658 318.271 422.078 318.996 422.949 319.358C423.849 319.751 424.72 319.66 425.47 318.966C425.981 318.513 426.161 317.879 426.161 317.184C426.161 312.323 426.161 307.432 426.161 302.571C426.161 301.303 426.161 300.035 426.161 298.677L431.894 298.677C431.894 299.794 431.894 300.941 431.894 302.088C431.894 307.13 431.894 312.142 431.894 317.184C431.894 318.785 432.945 319.69 434.476 319.509C435.616 319.358 436.337 318.513 436.337 317.245C436.337 315.192 436.337 313.169 436.337 311.116C436.337 307.161 436.337 303.236 436.337 299.28C436.337 299.069 436.337 298.858 436.337 298.586L442.07 298.586C442.07 298.827 442.07 299.069 442.07 299.341C442.07 305.258 442.07 311.176 442.07 317.124C442.07 318.392 443.001 319.57 444.321 319.539C445.702 319.509 446.573 318.603 446.573 317.124C446.573 313.471 446.573 309.848 446.603 306.194C446.603 303.688 446.603 301.182 446.603 298.616L452.276 298.616C452.276 298.827 452.276 299.039 452.276 299.28C452.276 305.258 452.276 311.206 452.276 317.184C452.276 318.996 453.867 320.083 455.488 319.358C456.389 318.966 456.779 318.181 456.779 317.215C456.779 311.357 456.779 305.5 456.779 299.612C456.779 299.311 456.779 298.978 456.779 298.586C457.409 298.586 457.979 298.586 458.58 298.586C459.691 298.586 460.771 298.586 461.882 298.586C462.362 298.586 462.542 298.767 462.542 299.28C462.542 305.198 462.542 311.116 462.542 317.033C462.542 318.06 462.842 318.875 463.833 319.298C465.334 319.962 467.045 318.996 467.045 317.184C467.015 312.656 467.045 308.157 467.045 303.628C467.045 302.239 467.045 300.85 467.045 299.431L466.835 299.552Z" fill="#293C53"/>
</g>
</g>
<g opacity="0.5">
<g opacity="0.5">
<path d="M690.117 178.575C687.671 188.541 678.07 197.846 665.148 197.996C652.708 198.146 642.322 189.261 639.696 178.605C639.937 178.605 640.148 178.575 640.39 178.575C646.066 178.575 651.712 178.575 657.388 178.575C658.354 178.575 659.079 178.244 659.532 177.374C660.287 175.873 659.29 174.132 657.6 174.102C655.365 174.072 653.131 174.102 650.897 174.102C647.062 174.102 643.198 174.102 639.363 174.102C638.971 174.102 638.85 173.952 638.85 173.592C638.85 171.881 638.85 170.17 638.85 168.369C639.182 168.369 639.545 168.369 639.877 168.369C645.734 168.369 651.591 168.369 657.479 168.369C658.626 168.369 659.472 167.738 659.713 166.718C659.955 165.697 659.532 164.616 658.596 164.166C658.264 164.016 657.871 163.926 657.509 163.926C653.041 163.926 648.602 163.926 644.134 163.926C642.383 163.926 640.631 163.926 638.82 163.926L638.82 158.253C639.031 158.253 639.212 158.253 639.424 158.253C642.624 158.253 645.855 158.253 649.055 158.253C651.833 158.253 654.611 158.253 657.388 158.253C658.807 158.253 659.773 157.322 659.773 155.971C659.773 154.651 658.807 153.75 657.388 153.75C651.471 153.75 645.553 153.75 639.635 153.75C639.394 153.75 639.152 153.75 638.88 153.75L638.88 148.017C640.088 148.017 641.326 148.017 642.534 148.017C647.515 148.017 652.527 148.017 657.509 148.017C658.566 148.017 659.381 147.446 659.683 146.516C660.015 145.555 659.683 144.475 658.837 143.964C658.415 143.694 657.841 143.574 657.328 143.574C651.41 143.574 645.492 143.574 639.545 143.574C639.333 143.574 639.122 143.574 638.88 143.574L638.88 137.841C639.182 137.841 639.394 137.841 639.635 137.841C645.613 137.841 651.561 137.841 657.539 137.841C658.656 137.841 659.592 137.09 659.773 136.1C659.985 134.929 659.411 133.818 658.324 133.518C657.781 133.368 657.147 133.398 656.573 133.368C651.078 133.368 645.583 133.368 640.118 133.368C639.997 133.368 639.877 133.368 639.756 133.368C642.081 123.432 652.225 113.706 665.54 114.007C678.432 114.307 687.852 123.732 690.177 133.398L689.392 133.398C683.716 133.398 678.01 133.398 672.333 133.398C671.397 133.398 670.673 133.818 670.311 134.689C669.918 135.589 670.009 136.46 670.703 137.21C671.156 137.721 671.79 137.901 672.484 137.901C677.345 137.901 682.237 137.901 687.098 137.901C688.366 137.901 689.634 137.901 690.992 137.901L690.992 143.634C689.875 143.634 688.728 143.634 687.581 143.634C682.538 143.634 677.527 143.634 672.484 143.634C670.884 143.634 669.978 144.685 670.16 146.216C670.311 147.356 671.156 148.077 672.424 148.077C674.477 148.077 676.5 148.077 678.553 148.077C682.508 148.077 686.433 148.077 690.388 148.077C690.6 148.077 690.811 148.077 691.083 148.077L691.083 153.81C690.841 153.81 690.6 153.81 690.328 153.81C684.41 153.81 678.493 153.81 672.545 153.81C671.277 153.81 670.099 154.741 670.129 156.061C670.16 157.442 671.065 158.313 672.545 158.313C676.198 158.313 679.821 158.313 683.474 158.343C685.98 158.343 688.486 158.343 691.053 158.343L691.053 164.016C690.841 164.016 690.63 164.016 690.388 164.016C684.41 164.016 678.462 164.016 672.484 164.016C670.673 164.016 669.586 165.607 670.311 167.228C670.703 168.128 671.488 168.519 672.454 168.519C678.312 168.519 684.169 168.519 690.056 168.519C690.358 168.519 690.69 168.519 691.083 168.519C691.083 169.149 691.083 169.719 691.083 170.32C691.083 171.43 691.083 172.511 691.083 173.622C691.083 174.102 690.902 174.282 690.388 174.282C684.471 174.282 678.553 174.282 672.635 174.282C671.609 174.282 670.794 174.582 670.371 175.573C669.707 177.074 670.673 178.785 672.484 178.785C677.013 178.755 681.512 178.785 686.041 178.785C687.43 178.785 688.818 178.785 690.238 178.785L690.117 178.575Z" fill="#293C53"/>
</g>
<g opacity="0.5">
<path d="M692.972 504.759C690.526 514.725 680.925 524.031 668.003 524.181C655.563 524.331 645.177 515.446 642.55 504.789C642.792 504.789 643.003 504.759 643.245 504.759C648.921 504.759 654.567 504.759 660.243 504.759C661.209 504.759 661.934 504.429 662.387 503.559C663.142 502.058 662.145 500.317 660.454 500.287C658.22 500.257 655.986 500.287 653.752 500.287C649.917 500.287 646.053 500.287 642.218 500.287C641.826 500.287 641.705 500.137 641.705 499.776C641.705 498.065 641.705 496.354 641.705 494.553C642.037 494.553 642.399 494.553 642.732 494.553C648.589 494.553 654.446 494.553 660.334 494.553C661.481 494.553 662.326 493.923 662.568 492.902C662.809 491.882 662.387 490.801 661.451 490.351C661.119 490.201 660.726 490.111 660.364 490.111C655.895 490.111 651.457 490.111 646.989 490.111C645.237 490.111 643.486 490.111 641.675 490.111L641.675 484.437C641.886 484.437 642.067 484.437 642.279 484.437C645.479 484.437 648.71 484.437 651.91 484.437C654.688 484.437 657.465 484.437 660.243 484.437C661.662 484.437 662.628 483.507 662.628 482.156C662.628 480.835 661.662 479.935 660.243 479.935C654.325 479.935 648.408 479.935 642.49 479.935C642.248 479.935 642.007 479.935 641.735 479.935L641.735 474.201C642.943 474.201 644.181 474.201 645.388 474.201C650.37 474.201 655.382 474.201 660.364 474.201C661.421 474.201 662.236 473.631 662.538 472.7C662.87 471.74 662.538 470.659 661.692 470.149C661.27 469.879 660.696 469.759 660.183 469.759C654.265 469.759 648.347 469.759 642.399 469.759C642.188 469.759 641.977 469.759 641.735 469.759L641.735 464.025C642.037 464.025 642.248 464.025 642.49 464.025C648.468 464.025 654.416 464.025 660.394 464.025C661.511 464.025 662.447 463.275 662.628 462.284C662.84 461.113 662.266 460.003 661.179 459.703C660.636 459.553 660.002 459.583 659.428 459.553C653.933 459.553 648.438 459.553 642.973 459.553C642.852 459.553 642.732 459.553 642.611 459.553C644.936 449.617 655.08 439.891 668.395 440.191C681.287 440.491 690.707 449.917 693.032 459.583L692.247 459.583C686.571 459.583 680.864 459.583 675.188 459.583C674.252 459.583 673.528 460.003 673.165 460.873C672.773 461.774 672.863 462.644 673.558 463.395C674.011 463.905 674.645 464.085 675.339 464.085C680.2 464.085 685.091 464.085 689.952 464.085C691.22 464.085 692.489 464.085 693.847 464.085L693.847 469.819C692.73 469.819 691.583 469.819 690.435 469.819C685.393 469.819 680.381 469.819 675.339 469.819C673.739 469.819 672.833 470.869 673.014 472.4C673.165 473.541 674.011 474.261 675.279 474.261C677.332 474.261 679.355 474.261 681.408 474.261C685.363 474.261 689.288 474.261 693.243 474.261C693.455 474.261 693.666 474.261 693.938 474.261L693.938 479.995C693.696 479.995 693.455 479.995 693.183 479.995C687.265 479.995 681.348 479.995 675.4 479.995C674.132 479.995 672.954 480.925 672.984 482.246C673.014 483.627 673.92 484.497 675.4 484.497C679.053 484.497 682.676 484.497 686.329 484.527C688.835 484.527 691.341 484.527 693.908 484.527L693.908 490.201C693.696 490.201 693.485 490.201 693.243 490.201C687.265 490.201 681.317 490.201 675.339 490.201C673.528 490.201 672.441 491.792 673.165 493.413C673.558 494.313 674.343 494.703 675.309 494.703C681.166 494.703 687.024 494.703 692.911 494.703C693.213 494.703 693.545 494.703 693.938 494.703C693.938 495.334 693.938 495.904 693.938 496.504C693.938 497.615 693.938 498.696 693.938 499.806C693.938 500.287 693.757 500.467 693.243 500.467C687.326 500.467 681.408 500.467 675.49 500.467C674.464 500.467 673.648 500.767 673.226 501.758C672.562 503.258 673.528 504.969 675.339 504.969C679.868 504.939 684.367 504.969 688.896 504.969C690.284 504.969 691.673 504.969 693.092 504.969L692.972 504.759Z" fill="#293C53"/>
</g>
</g>
<path d="M763.424 381.464C731.873 432.104 659.502 452.576 604.944 408.39C532.513 348.684 570.555 231.135 664.936 226.482L663.94 209.252C636.858 211.113 610.62 222.49 590.995 241.071C539.819 288.499 543.02 373.749 598.845 415.924C658.566 462.122 737.428 437.747 768.526 381.434H763.454L763.424 381.464Z" fill="#00E357"/>
<path d="M1057.35 391.13C1060.76 392.03 1064.02 393.501 1066.71 395.783C1072.41 400.615 1074.65 408.06 1077.61 415.024C1078.48 417.095 1081.11 417.756 1082.86 416.345C1088.5 411.752 1099.65 403.527 1101.03 402.327C1107.86 396.413 1116.22 392.631 1125.07 391.16H1057.38L1057.35 391.13Z" fill="#00E357"/>
<path d="M866.984 257.25H1142.04C1177.18 257.25 1205.74 285.617 1205.74 320.587V332.745C1205.74 367.685 1177.21 396.082 1142.04 396.082H867.678C832.142 396.082 803.278 367.385 803.278 332.054V320.587C803.278 285.647 831.81 257.25 866.984 257.25Z" fill="#00E357"/>
<path d="M660.528 257.25H1005.75V396.082H661.223C625.687 396.082 596.823 367.385 596.823 332.054V320.587C596.823 285.647 625.354 257.25 660.528 257.25Z" fill="#293C53"/>
<path d="M737.851 305.039C740.297 295.073 749.898 285.767 762.82 285.617C775.259 285.467 785.646 294.352 788.272 305.009C788.031 305.009 787.819 305.039 787.578 305.039C781.902 305.039 776.256 305.039 770.58 305.039C769.613 305.039 768.889 305.369 768.436 306.239C767.681 307.74 768.677 309.481 770.368 309.511C772.602 309.541 774.837 309.511 777.071 309.511C780.905 309.511 784.77 309.511 788.604 309.511C788.997 309.511 789.118 309.661 789.118 310.022C789.118 311.733 789.118 313.444 789.118 315.245C788.786 315.245 788.423 315.245 788.091 315.245C782.234 315.245 776.376 315.245 770.489 315.245C769.342 315.245 768.496 315.875 768.255 316.896C768.013 317.916 768.436 318.997 769.372 319.447C769.704 319.597 770.096 319.687 770.459 319.687C774.927 319.687 779.366 319.687 783.834 319.687C785.585 319.687 787.336 319.687 789.148 319.687V325.361C788.936 325.361 788.755 325.361 788.544 325.361C785.344 325.361 782.113 325.361 778.913 325.361C776.135 325.361 773.357 325.361 770.58 325.361C769.161 325.361 768.194 326.291 768.194 327.642C768.194 328.963 769.161 329.863 770.58 329.863C776.497 329.863 782.415 329.863 788.333 329.863C788.574 329.863 788.816 329.863 789.087 329.863V335.597C787.88 335.597 786.642 335.597 785.434 335.597C780.452 335.597 775.44 335.597 770.459 335.597C769.402 335.597 768.587 336.167 768.285 337.098C767.953 338.058 768.285 339.139 769.13 339.649C769.553 339.919 770.127 340.039 770.64 340.039C776.558 340.039 782.475 340.039 788.423 340.039C788.635 340.039 788.846 340.039 789.087 340.039V345.773C788.785 345.773 788.574 345.773 788.333 345.773C782.355 345.773 776.407 345.773 770.429 345.773C769.311 345.773 768.375 346.523 768.194 347.514C767.983 348.684 768.557 349.795 769.644 350.095C770.187 350.245 770.821 350.215 771.395 350.245C776.89 350.245 782.385 350.245 787.85 350.245C787.97 350.245 788.091 350.245 788.212 350.245C785.887 360.181 775.742 369.907 762.428 369.607C749.535 369.307 740.115 359.881 737.791 350.215H738.576C744.252 350.215 749.958 350.215 755.634 350.215C756.57 350.215 757.295 349.795 757.657 348.925C758.05 348.024 757.959 347.154 757.265 346.403C756.812 345.893 756.178 345.713 755.483 345.713C750.622 345.713 745.731 345.713 740.87 345.713C739.602 345.713 738.334 345.713 736.975 345.713V339.979C738.093 339.979 739.24 339.979 740.387 339.979C745.429 339.979 750.441 339.979 755.483 339.979C757.084 339.979 757.989 338.929 757.808 337.398C757.657 336.257 756.812 335.537 755.544 335.537C753.491 335.537 751.468 335.537 749.415 335.537C745.459 335.537 741.534 335.537 737.579 335.537C737.368 335.537 737.157 335.537 736.885 335.537V329.803C737.126 329.803 737.368 329.803 737.64 329.803C743.557 329.803 749.475 329.803 755.423 329.803C756.691 329.803 757.869 328.873 757.838 327.552C757.808 326.171 756.902 325.301 755.423 325.301C751.77 325.301 748.147 325.301 744.493 325.271C741.987 325.271 739.481 325.271 736.915 325.271V319.597C737.126 319.597 737.338 319.597 737.579 319.597C743.557 319.597 749.505 319.597 755.483 319.597C757.295 319.597 758.382 318.006 757.657 316.385C757.265 315.485 756.48 315.095 755.514 315.095C749.656 315.095 743.799 315.095 737.911 315.095C737.609 315.095 737.277 315.095 736.885 315.095C736.885 314.464 736.885 313.894 736.885 313.293C736.885 312.183 736.885 311.102 736.885 309.992C736.885 309.511 737.066 309.331 737.579 309.331C743.497 309.331 749.415 309.331 755.332 309.331C756.359 309.331 757.174 309.031 757.597 308.04C758.261 306.539 757.295 304.828 755.483 304.828C750.955 304.858 746.456 304.828 741.927 304.828C740.538 304.828 739.149 304.828 737.73 304.828L737.851 305.039Z" fill="white"/>
<path d="M728.189 338.599C729.639 338.599 730.846 339.769 730.846 341.21C730.846 343.251 730.877 346.043 730.997 347.664C731.299 352.197 732.688 356.429 734.922 360.392C737.277 364.564 740.568 368.226 744.493 370.988C749.777 374.68 755.604 376.601 761.945 376.841C766.141 376.991 770.338 376.331 774.263 374.86C779.849 372.759 784.468 369.427 788.151 364.894C791.442 360.812 793.646 356.219 794.643 351.086C795.005 349.105 795.156 347.064 795.247 345.022C795.307 344.062 795.307 342.531 795.307 341.21C795.307 339.769 796.485 338.599 797.934 338.599C799.383 338.599 800.561 339.769 800.561 341.21C800.561 341.27 800.561 341.36 800.561 341.42C800.591 344.992 800.561 348.565 799.836 352.107C797.994 360.932 793.556 368.196 786.551 373.869C781.026 378.342 774.323 381.134 767.228 381.914C759.68 382.725 752.494 381.434 745.761 377.952C741.957 376.001 738.576 373.449 735.647 370.327C731.843 366.275 729.065 361.622 727.344 356.339C726.318 353.247 725.563 347.994 725.533 344.722C725.533 343.552 725.533 342.411 725.533 341.24C725.533 339.799 726.74 338.629 728.189 338.629V338.599Z" fill="#00E357"/>
<path d="M586.678 252.688H530.369C506.007 252.688 486.258 272.322 486.258 296.543V314.224C486.258 338.445 506.007 358.08 530.369 358.08H586.678C611.04 358.08 630.789 338.445 630.789 314.224V296.543C630.789 272.322 611.04 252.688 586.678 252.688Z" fill="#00E357"/>
<path d="M529.011 287.448C529.011 283.365 528.89 280.604 528.679 278.623V278.412H516.179V278.653C516.36 281.925 516.39 287.778 516.39 296.783V332.384H529.192V307.17C529.192 295.493 534.053 290.51 545.465 290.48H545.677V277.542H545.435C535.109 277.602 530.671 283.876 528.98 287.448H529.011Z" fill="white"/>
<path d="M577.681 277.392C559.565 277.392 553.134 292.491 553.134 305.399C553.134 323.439 561.649 333.375 577.107 333.375C592.566 333.375 597.879 324.07 600.114 316.265L600.204 315.965H587.614L587.554 316.115C585.953 320.768 582.572 323.139 577.53 323.139C574.48 323.139 571.944 322.179 570.042 320.257C567.476 317.706 566.087 313.473 566.057 308.28H600.657V308.07C600.748 307.41 600.838 304.408 600.838 303.778C600.838 293.902 597.819 277.332 577.681 277.332V277.392ZM577.469 287.238C585.953 287.238 588.067 293.902 588.308 299.605H566.298C566.63 294.862 568.593 287.238 577.469 287.238Z" fill="white"/>
<path d="M1071.99 335.777C1071.99 345.502 1068.73 349.465 1060.7 349.465C1052.67 349.465 1049.1 345.262 1049.1 335.807V292.821H1034.22V336.317C1034.22 353.367 1043.04 362.042 1060.43 362.042C1077.82 362.042 1086.97 353.307 1086.97 336.107V292.821H1071.99V335.777Z" fill="white"/>
<path d="M1140.34 292.792V316.416C1140.34 323.62 1140.38 331.004 1140.62 337.578C1137.36 331.094 1131.02 318.817 1117.97 293.662L1117.52 292.792H1100.01V361.052H1113.9V337.338C1113.9 329.323 1113.9 321.129 1113.72 313.984C1116.98 320.558 1123.41 333.376 1136.99 360.122L1137.45 361.022H1154.23V292.762H1140.31L1140.34 292.792Z" fill="white"/>
<path d="M698.269 294.142C691.476 314.254 686.887 328.542 684.592 336.887C681.784 325.751 676.561 307.68 672.153 294.172L671.79 293.061H652.165V359.671H665.782V334.576C665.782 328.903 665.722 322.239 665.571 316.115C669.284 330.343 674.447 348.594 677.316 358.5L677.648 359.641H689.936L690.298 358.53C694.857 344.632 700.141 327.552 703.734 314.614C703.643 320.317 703.583 326.861 703.583 333.225V359.641H717.683V293.031H698.662L698.299 294.112L698.269 294.142Z" fill="white"/>
<path d="M832.776 293.062H809.467V359.671H832.081C851.978 359.671 863.874 346.703 863.874 324.97C863.874 305.309 851.948 293.062 832.776 293.062ZM823.99 305.279H831.961C842.8 305.279 848.989 312.513 848.989 325.151C848.989 335.357 846.03 347.544 831.84 347.544H823.96V305.279H823.99Z" fill="white"/>
<path d="M890.775 331.244H918.824V318.697H890.775V305.579H920.032V293.062H876.555V359.671H920.092L921.964 347.214H890.775V331.244Z" fill="white"/>
<path d="M948.382 293.062H933.92V359.671H976.099L977.88 347.214H948.382V293.062Z" fill="white"/>
<path d="M691.083 216.276L659.985 198.146L663.427 239.27L691.083 216.276Z" fill="#00E357"/>
<path d="M758.714 396.113C762.337 391.52 765.628 386.657 768.466 381.494H763.394C760.133 386.717 756.419 391.58 752.343 396.113H758.684H758.714Z" fill="#00E357"/>
<rect x="486.5" y="198.5" width="719" height="241" stroke="black" stroke-dasharray="2 2"/>
<rect x="402.5" y="114.5" width="887" height="409" stroke="black" stroke-dasharray="2 2"/>
<path d="M402.5 198.5H486.5" stroke="black" stroke-dasharray="2 2"/>
<path d="M486.5 198V114.5" stroke="black" stroke-dasharray="2 2"/>
<path d="M1205.5 198.5V114.5" stroke="black" stroke-dasharray="2 2"/>
<path d="M1206 198.5H1290" stroke="black" stroke-dasharray="2 2"/>
<path d="M402 439.5H486" stroke="black" stroke-dasharray="2 2"/>
<path d="M486.5 440V523.5" stroke="black" stroke-dasharray="2 2"/>
<path d="M1205.5 440V523.5" stroke="black" stroke-dasharray="2 2"/>
<path d="M1205.5 439.5H1289.5" stroke="black" stroke-dasharray="2 2"/>
</g>
<defs>
<filter id="filter0_dddd_1940_703" x="0" y="0" width="1692" height="864" filterUnits="userSpaceOnUse" color-interpolation-filters="sRGB">
<feFlood flood-opacity="0" result="BackgroundImageFix"/>
<feColorMatrix in="SourceAlpha" type="matrix" values="0 0 0 0 0 0 0 0 0 0 0 0 0 0 0 0 0 0 127 0" result="hardAlpha"/>
<feOffset dy="11"/>
<feGaussianBlur stdDeviation="12"/>
<feColorMatrix type="matrix" values="0 0 0 0 0.858824 0 0 0 0 0.858824 0 0 0 0 0.858824 0 0 0 0.07 0"/>
<feBlend mode="normal" in2="BackgroundImageFix" result="effect1_dropShadow_1940_703"/>
<feColorMatrix in="SourceAlpha" type="matrix" values="0 0 0 0 0 0 0 0 0 0 0 0 0 0 0 0 0 0 127 0" result="hardAlpha"/>
<feOffset dy="43"/>
<feGaussianBlur stdDeviation="21.5"/>
<feColorMatrix type="matrix" values="0 0 0 0 0.858824 0 0 0 0 0.858824 0 0 0 0 0.858824 0 0 0 0.06 0"/>
<feBlend mode="normal" in2="effect1_dropShadow_1940_703" result="effect2_dropShadow_1940_703"/>
<feColorMatrix in="SourceAlpha" type="matrix" values="0 0 0 0 0 0 0 0 0 0 0 0 0 0 0 0 0 0 127 0" result="hardAlpha"/>
<feOffset dy="96"/>
<feGaussianBlur stdDeviation="29"/>
<feColorMatrix type="matrix" values="0 0 0 0 0.858824 0 0 0 0 0.858824 0 0 0 0 0.858824 0 0 0 0.04 0"/>
<feBlend mode="normal" in2="effect2_dropShadow_1940_703" result="effect3_dropShadow_1940_703"/>
<feColorMatrix in="SourceAlpha" type="matrix" values="0 0 0 0 0 0 0 0 0 0 0 0 0 0 0 0 0 0 127 0" result="hardAlpha"/>
<feOffset dy="171"/>
<feGaussianBlur stdDeviation="34"/>
<feColorMatrix type="matrix" values="0 0 0 0 0.858824 0 0 0 0 0.858824 0 0 0 0 0.858824 0 0 0 0.01 0"/>
<feBlend mode="normal" in2="effect3_dropShadow_1940_703" result="effect4_dropShadow_1940_703"/>
<feBlend mode="normal" in="SourceGraphic" in2="effect4_dropShadow_1940_703" result="shape"/>
</filter>
</defs>
</svg>
