<svg xmlns="http://www.w3.org/2000/svg" viewBox="0 0 900 600" width="900" height="600" role="img" aria-label="Tea served on arrival"><title>Tea served on arrival</title><defs><linearGradient id="d1" x1="0" y1="0" x2="0" y2="1"><stop offset="0" stop-color="#EFC39A"/><stop offset="1" stop-color="#F4EDE1"/></linearGradient></defs><rect width="900" height="600" fill="url(#d1)"/><path d="M320 330 L545 166 L620 130 L710 174 L920 330 Z" fill="#C9D3CF"/><path d="M524 182 L545 166 L620 130 L710 174 L740 196 L668 186 L608 202 L566 184 Z" fill="#FBF8F2"/><path d="M0 600 L0 332.6 Q0 332.6 75 328.6 Q150 324.6 225 320.3 Q300 316 375 319.7 Q450 323.4 525 340.6 Q600 357.8 675 353.9 Q750 350 825 340.7 L900 331.4 L900 600 Z" fill="#9FAE84"/><rect y="380" width="900" height="220" fill="#7A4E2D"/><rect y="380" width="900" height="18" fill="#5A3820"/><path d="M275 393 L385 393 L371.8 470 L288.2 470 Z" fill="#FBF8F2" stroke="#5B4A3C" stroke-width="5.5"/><rect x="280.5" y="397.4" width="99" height="15.4" fill="#9A6A3A"/><ellipse cx="330" cy="474.4" rx="77" ry="11" fill="#EADFCB" stroke="#5B4A3C" stroke-width="4.4"/><path d="M310.2 376.5 q13.2 -22 0 -41.8 q-13.2 -19.8 0 -39.6" fill="none" stroke="#5B4A3C" stroke-opacity=".45" stroke-width="5.5" stroke-linecap="round"/><path d="M343.2 376.5 q13.2 -22 0 -41.8 q-13.2 -19.8 0 -39.6" fill="none" stroke="#5B4A3C" stroke-opacity=".45" stroke-width="5.5" stroke-linecap="round"/><path d="M515 417 L605 417 L594.2 480 L525.8 480 Z" fill="#FBF8F2" stroke="#5B4A3C" stroke-width="4.5"/><rect x="519.5" y="420.6" width="81" height="12.6" fill="#9A6A3A"/><ellipse cx="560" cy="483.6" rx="63" ry="9" fill="#EADFCB" stroke="#5B4A3C" stroke-width="3.6"/><path d="M543.8 403.5 q10.8 -18 0 -34.2 q-10.8 -16.2 0 -32.4" fill="none" stroke="#5B4A3C" stroke-opacity=".45" stroke-width="4.5" stroke-linecap="round"/><path d="M570.8 403.5 q10.8 -18 0 -34.2 q-10.8 -16.2 0 -32.4" fill="none" stroke="#5B4A3C" stroke-opacity=".45" stroke-width="4.5" stroke-linecap="round"/><ellipse cx="760" cy="490" rx="80" ry="24" fill="#FBF8F2"/><circle cx="740" cy="478" r="18" fill="#C8955E"/><circle cx="780" cy="478" r="18" fill="#C8955E"/></svg>
