<svg xmlns="http://www.w3.org/2000/svg" viewBox="0 0 600 600" width="600" height="600" role="img" aria-label="A cafe owner serving tea"><title>A cafe owner serving tea</title><rect width="600" height="600" fill="#EADFCB"/><rect y="460" width="600" height="140" fill="#7A4E2D"/><path d="M435 411 L505 411 L496.6 460 L443.4 460 Z" fill="#FBF8F2" stroke="#5B4A3C" stroke-width="3.5"/><rect x="438.5" y="413.8" width="63" height="9.8" fill="#9A6A3A"/><ellipse cx="470" cy="462.8" rx="49" ry="7" fill="#EADFCB" stroke="#5B4A3C" stroke-width="2.8"/><path d="M457.4 400.5 q8.4 -14 0 -26.6 q-8.4 -12.6 0 -25.2" fill="none" stroke="#5B4A3C" stroke-opacity=".45" stroke-width="3.5" stroke-linecap="round"/><path d="M478.4 400.5 q8.4 -14 0 -26.6 q-8.4 -12.6 0 -25.2" fill="none" stroke="#5B4A3C" stroke-opacity=".45" stroke-width="3.5" stroke-linecap="round"/><path d="M92 420.8 L148 420.8 L141.3 460 L98.7 460 Z" fill="#FBF8F2" stroke="#5B4A3C" stroke-width="2.8"/><rect x="94.8" y="423" width="50.4" height="7.8" fill="#9A6A3A"/><ellipse cx="120" cy="462.2" rx="39.2" ry="5.6" fill="#EADFCB" stroke="#5B4A3C" stroke-width="2.2"/><g><path d="M204.8 720 L216 353.8 Q300 292.2 384 353.8 L395.2 720 Z" fill="#9A6A3A"/><rect x="280.4" y="264.7" width="39.2" height="55.4" fill="#8C5A3A"/><circle cx="300" cy="221.6" r="61.6" fill="#8C5A3A"/><path d="M238.4 218.5 A61.6 61.6 0 0 1 361.6 218.5 Q300 187.7 238.4 218.5 Z" fill="#2A1F17"/></g><rect x="220" y="470" width="160" height="200" fill="#FBF8F2" opacity=".85"/></svg>
