<svg xmlns="http://www.w3.org/2000/svg" viewBox="0 0 800 600" width="800" height="600" role="img" aria-label="Inside a small cafe"><title>Inside a small cafe</title><rect width="800" height="600" fill="#EADFCB"/><line x1="180" y1="0" x2="180" y2="90" stroke="#5B4A3C" stroke-width="3"/><path d="M135 90 h90 l-18 -40 h-54 z" fill="#C2452D"/><circle cx="180" cy="98" r="10" fill="#F6C66B"/><line x1="400" y1="0" x2="400" y2="90" stroke="#5B4A3C" stroke-width="3"/><path d="M355 90 h90 l-18 -40 h-54 z" fill="#C2452D"/><circle cx="400" cy="98" r="10" fill="#F6C66B"/><line x1="620" y1="0" x2="620" y2="90" stroke="#5B4A3C" stroke-width="3"/><path d="M575 90 h90 l-18 -40 h-54 z" fill="#C2452D"/><circle cx="620" cy="98" r="10" fill="#F6C66B"/><rect x="60" y="170" width="300" height="14" fill="#7A4E2D"/><rect x="60" y="250" width="300" height="14" fill="#7A4E2D"/><rect x="80" y="122" width="30" height="48" rx="4" fill="#9A6A3A"/><rect x="80" y="206" width="30" height="44" rx="4" fill="#5E7148"/><rect x="126" y="122" width="30" height="48" rx="4" fill="#7E9163"/><rect x="126" y="206" width="30" height="44" rx="4" fill="#C2452D"/><rect x="172" y="122" width="30" height="48" rx="4" fill="#F6C66B"/><rect x="172" y="206" width="30" height="44" rx="4" fill="#9A6A3A"/><rect x="218" y="122" width="30" height="48" rx="4" fill="#C8955E"/><rect x="218" y="206" width="30" height="44" rx="4" fill="#F6C66B"/><rect x="264" y="122" width="30" height="48" rx="4" fill="#5E7148"/><rect x="264" y="206" width="30" height="44" rx="4" fill="#7E9163"/><rect x="310" y="122" width="30" height="48" rx="4" fill="#C2452D"/><rect x="310" y="206" width="30" height="44" rx="4" fill="#C8955E"/><rect x="440" y="150" width="280" height="130" fill="#2A1F17"/><line x1="465" y1="185" x2="640" y2="185" stroke="#FBF8F2" stroke-width="5" stroke-linecap="round" opacity=".8"/><line x1="465" y1="209" x2="590" y2="209" stroke="#FBF8F2" stroke-width="5" stroke-linecap="round" opacity=".8"/><line x1="465" y1="233" x2="640" y2="233" stroke="#FBF8F2" stroke-width="5" stroke-linecap="round" opacity=".8"/><line x1="465" y1="257" x2="590" y2="257" stroke="#FBF8F2" stroke-width="5" stroke-linecap="round" opacity=".8"/><g><path d="M352.4 470 L358 286.9 Q400 256.1 442 286.9 L447.6 470 Z" fill="#9A6A3A"/><rect x="390.2" y="242.4" width="19.6" height="27.7" fill="#8C5A3A"/><circle cx="400" cy="220.8" r="30.8" fill="#8C5A3A"/><path d="M369.2 219.3 A30.8 30.8 0 0 1 430.8 219.3 Q400 203.9 369.2 219.3 Z" fill="#2A1F17"/></g><rect x="0" y="390" width="800" height="210" fill="#7A4E2D"/><rect x="0" y="390" width="800" height="20" fill="#5A3820"/><path d="M530 348 L590 348 L582.8 390 L537.2 390 Z" fill="#FBF8F2" stroke="#5B4A3C" stroke-width="3"/><rect x="533" y="350.4" width="54" height="8.4" fill="#9A6A3A"/><ellipse cx="560" cy="392.4" rx="42" ry="6" fill="#EADFCB" stroke="#5B4A3C" stroke-width="2.4"/><path d="M549.2 339 q7.2 -12 0 -22.8 q-7.2 -10.8 0 -21.6" fill="none" stroke="#5B4A3C" stroke-opacity=".45" stroke-width="3" stroke-linecap="round"/><path d="M567.2 339 q7.2 -12 0 -22.8 q-7.2 -10.8 0 -21.6" fill="none" stroke="#5B4A3C" stroke-opacity=".45" stroke-width="3" stroke-linecap="round"/><path d="M635 355 L685 355 L679 390 L641 390 Z" fill="#FBF8F2" stroke="#5B4A3C" stroke-width="2.5"/><rect x="637.5" y="357" width="45" height="7" fill="#9A6A3A"/><ellipse cx="660" cy="392" rx="35" ry="5" fill="#EADFCB" stroke="#5B4A3C" stroke-width="2"/></svg>
